# xmcd
# 
# Track frame offsets:
#     150
#     13700
#     25490
#     38297
#     51637
#     66050
#     79056
#     92318
#     110613
#     125297
# 
# Disc length: 1843
# 
# Revision: 3
# Processed by: cddbd v1.5.2PL0 Copyright (c) Steve Scherf et al.
# Submitted via: fre:ac v1.0.31
# 
DISCID=7607310a
DTITLE=Alicia Villarreal - Orgullo De Mujer
DYEAR=2006
DGENRE=Ranchero
TTITLE0=Me Gustas
TTITLE1=El Daño
TTITLE2=Que No Se Entere
TTITLE3=El Rollito
TTITLE4=Las Mujeres Olvidadas
TTITLE5=Qué Te Parece?
TTITLE6=Enredo
TTITLE7=Insensible A Tí (Me Pone A Mil)
TTITLE8=Ni Por Interesada
TTITLE9=Dos Mares
EXTD=
EXTT0=
EXTT1=
EXTT2=
EXTT3=
EXTT4=
EXTT5=
EXTT6=
EXTT7=
EXTT8=
EXTT9=
PLAYORDER=
